<svg xmlns="http://www.w3.org/2000/svg" role="img" aria-label="p99 latency at maximum stable throughput" viewBox="0 0 920 360"><style>text{font-family:system-ui,sans-serif;fill:#334155}.title{font-size:18px;font-weight:600}.label{font-size:12px}.grid{stroke:#cbd5e1;stroke-width:1}.axis{stroke:#64748b;stroke-width:1.2}</style><rect width="100%" height="100%" rx="12" fill="#fff"/><text x="24" y="30" class="title">p99 latency at maximum stable throughput</text><line x1="220" y1="62" x2="220" y2="322" class="axis"/><text x="210" y="76" text-anchor="end" class="label">08-domain-set</text><rect x="220" y="62" width="145.85" height="14" rx="3" fill="#0f766e"/><text x="370.85" y="73" class="label">1.7 ms</text><rect x="220" y="80" width="415.28" height="14" rx="3" fill="#f59e0b"/><text x="640.28" y="91" class="label">4.7 ms</text><text x="210" y="122" text-anchor="end" class="label">09-ip-set</text><rect x="220" y="108" width="185.15" height="14" rx="3" fill="#0f766e"/><text x="410.15" y="119" class="label">2.1 ms</text><rect x="220" y="126" width="218.82" height="14" rx="3" fill="#f59e0b"/><text x="443.82" y="137" class="label">2.5 ms</text><text x="210" y="168" text-anchor="end" class="label">42-composite-local-rewrite</text><rect x="220" y="154" width="201.99" height="14" rx="3" fill="#0f766e"/><text x="426.99" y="165" class="label">2.3 ms</text><rect x="220" y="172" width="213.21" height="14" rx="3" fill="#f59e0b"/><text x="438.21" y="183" class="label">2.4 ms</text><text x="210" y="214" text-anchor="end" class="label">43-composite-provider-chain</text><rect x="220" y="200" width="159.89" height="14" rx="3" fill="#0f766e"/><text x="384.89" y="211" class="label">1.8 ms</text><rect x="220" y="218" width="550.00" height="14" rx="3" fill="#f59e0b"/><text x="775.00" y="229" class="label">6.3 ms</text><rect x="220" y="336" width="12" height="12" fill="#0f766e"/><text x="238" y="346" class="label">OxiDNS</text><rect x="370" y="336" width="12" height="12" fill="#f59e0b"/><text x="388" y="346" class="label">mosdns</text></svg>